# xmcd CD database file
#
# Track frame offsets:
#	150
#	15726
#	29847
#	43526
#	57710
#	70297
#	86328
#	100902
#	109090
#	123851
#	137519
#	151221
#	164323
#	178037
#	192226
#	204975
#	218001
#	232846
#	246086
#	257763
#
# Disc length: 3616 seconds
#
# Revision: 0
# Processed by: cddbd v1.5.1PL0 Copyright (c) Steve Scherf et al.
# Submitted via: CDex 1.51
#
DISCID=100e1e14
DTITLE=Billie Holiday - Real Gold Disc 2
DYEAR=2003
DGENRE=Jazz
TTITLE0=I Can't Give You Anything But Love
TTITLE1=That's Life I Guess
TTITLE2=Gettin' Some Fun Out of Life
TTITLE3=This Is My Last Affair
TTITLE4=A Sailboat in the Moonlight
TTITLE5=Do Nothin' till You Hear From Me
TTITLE6=Fine and Mellow
TTITLE7=Lover Come Back to Me
TTITLE8=Pennies From Heaven
TTITLE9=They Can't Take That Away From Me
TTITLE10=My Man
TTITLE11=You Let Me Down
TTITLE12=Miss Brown to You
TTITLE13=Strange Fruit
TTITLE14=Them There Eyes
TTITLE15=That Ole Devil Called Love
TTITLE16=Georgia on my Mind
TTITLE17=I Cover the Waterfront
TTITLE18=Me, Myself and I
TTITLE19=What a Little Moonlight Can Do
EXTD=YEAR: 2003
EXTT0=
EXTT1=
EXTT2=
EXTT3=
EXTT4=
EXTT5=
EXTT6=
EXTT7=
EXTT8=
EXTT9=
EXTT10=
EXTT11=
EXTT12=
EXTT13=
EXTT14=
EXTT15=
EXTT16=
EXTT17=
EXTT18=
EXTT19=
PLAYORDER=
